<?xml version="1.0" encoding="UTF-8"?>
<svg width="800px" height="600px" viewBox="0 0 800 600" version="1.1" xmlns="http://www.w3.org/2000/svg" xmlns:xlink="http://www.w3.org/1999/xlink">
    <!-- Generator: Sketch 56.3 (81716) - https://sketch.com -->
    <title>borrego-white</title>
    <desc>Created with Sketch.</desc>
    <g id="Page-1" stroke="none" stroke-width="1" fill="none" fill-rule="evenodd">
        <g id="borrego-white">
            <rect id="background" x="0" y="0" width="800" height="600"></rect>
            <path d="M361.240855,465.342928 C373.388303,471 387.777929,472.724598 401,472.724598 C414.222071,472.724598 427.770747,471 439.230003,465.342928 C439.230003,481.227048 426.817082,497.111167 401,497.111167 C375.182918,497.111167 360.39287,481.227048 361.240855,465.342928 Z M388.866993,198.118843 C388.866993,226.885201 353.119535,252.342837 326.741118,249.829497 C301.399924,216.203062 268.014819,169.941934 213.803874,171.620402 C138.240682,173.959975 120.01136,235.616502 106.011542,269.087085 C110.561707,230.487714 123.85549,103.478995 246.292769,103.478995 C319.303211,103.478995 361.241759,163.30829 388.866993,198.118843 Z M183.01496,460.093216 C235.575127,481.018448 272.991819,469.58775 281.008178,443.787993 C289.024537,417.988237 282.22331,390.677641 252.301169,361.793008 C281.008178,363.084933 310.943219,383.012329 319.861648,422.197873 C328.780076,461.383417 296.929294,489.187867 260.720991,489.187867 C224.512688,489.187867 203.472752,482.57859 183.01496,460.093216 Z M304.119222,247.248274 C311.42689,257.091255 316.554539,263.881698 319.50217,267.619604 C310.469568,297.254916 325.228556,310.612464 337.862356,310.612464 C347.384859,345.711764 361.43845,399.046634 373.56619,425.766348 C376.728752,432.734073 379.824199,437.462564 393.451731,437.462564 C393.451731,443.769046 393.451731,453.643828 393.451731,459.17587 C371.108734,459.17587 371.325568,456.648482 363.478669,452.17111 C355.631771,447.693738 353.645558,433.460044 353.645558,415.426613 C353.645558,387.403286 307.9518,333.345846 301.222035,306.784272 C298.334088,295.385894 299.299817,275.540561 304.119222,247.248274 Z M412.133007,198.118843 C439.758241,163.30829 481.696789,103.478995 554.707231,103.478995 C677.14451,103.478995 690.438293,230.487714 694.988458,269.087085 C680.98864,235.616502 662.759318,173.959975 587.196126,171.620402 C532.985181,169.941934 499.600076,216.203062 474.258882,249.829497 C447.880465,252.342837 412.133007,226.885201 412.133007,198.118843 Z M617.98504,460.093216 C597.527248,482.57859 576.487312,489.187867 540.279009,489.187867 C504.070706,489.187867 472.219924,461.383417 481.138352,422.197873 C490.056781,383.012329 519.991822,363.084933 548.698831,361.793008 C518.77669,390.677641 511.975463,417.988237 519.991822,443.787993 C528.008181,469.58775 565.424873,481.018448 617.98504,460.093216 Z M496.880778,247.248274 C501.700183,275.540561 502.665912,295.385894 499.777965,306.784272 C493.0482,333.345846 447.354442,387.403286 447.354442,415.426613 C447.354442,433.460044 445.368229,447.693738 437.521331,452.17111 C429.674432,456.648482 429.891266,459.17587 407.548269,459.17587 C407.548269,453.643828 407.548269,443.769046 407.548269,437.462564 C421.175801,437.462564 424.271248,432.734073 427.43381,425.766348 C439.56155,399.046634 453.615141,345.711764 463.137644,310.612464 C475.771444,310.612464 490.530432,297.254916 481.49783,267.619604 C484.445461,263.881698 489.57311,257.091255 496.880778,247.248274 Z" id="gray" fill="#C6C6C6"></path>
            <path d="M291.853535,234.405513 C288.550187,248.33905 286.198074,270.613361 286.198074,287.171304 C274.109683,271.485775 248.369005,243.181599 222.356035,243.181599 C206.353031,243.181599 172.706799,248.733489 168.603181,315.063457 C164.499563,381.393425 229.28637,444.186503 266.703478,446.092418 C258.522671,455.403848 242.958607,458.968545 230.86341,458.425898 C159.63004,455.230034 112.349527,379.552192 112.349527,315.063457 C112.349527,250.574721 156.826494,187.931131 214.60284,187.931131 C238.068421,187.931131 266.627117,199.438464 291.853535,234.405513 Z M509.146465,234.405513 C534.372883,199.438464 562.931579,187.931131 586.39716,187.931131 C644.173506,187.931131 688.650473,250.574721 688.650473,315.063457 C688.650473,379.552192 641.36996,455.230034 570.13659,458.425898 C558.041393,458.968545 542.477329,455.403848 534.296522,446.092418 C571.71363,444.186503 636.500437,381.393425 632.396819,315.063457 C628.293201,248.733489 594.646969,243.181599 578.643965,243.181599 C552.630995,243.181599 526.890317,271.485775 514.801926,287.171304 C514.801926,270.613361 512.449813,248.33905 509.146465,234.405513 Z M401,213.213264 C407.707267,249.328653 436.351218,264.321457 464.532364,264.321457 C449.059853,293.930155 433.770202,357.291126 426.587594,387.794358 C420.033988,415.626334 417.743179,423.350261 401,423.350261 C384.256821,423.350261 381.429177,415.626334 374.479651,387.794358 C367.230869,358.7639 355.838353,308.696682 336.371191,264.321457 C362.933314,264.321457 395.229774,248.874566 401,213.213264 Z" id="white" fill="#FFFFFF"></path>
        </g>
    </g>
</svg>